<?xml version="1.0" encoding="utf-8"?>
<!-- Generator: Adobe Illustrator 22.1.0, SVG Export Plug-In . SVG Version: 6.00 Build 0)  -->
<svg version="1.1" id="Layer_2" xmlns="http://www.w3.org/2000/svg" xmlns:xlink="http://www.w3.org/1999/xlink" x="0px" y="0px"
	 viewBox="0 0 150 250" style="enable-background:new 0 0 150 250;" xml:space="preserve">
<style type="text/css">
	.st0{fill:#FFFFFF;}
</style>
<rect width="150" height="250" style="fill:rgb(0,0,0);stroke-width:0;stroke:rgb(50,20,65)" />
<g>
	<path class="st0" d="M137.1,74.9c-3.2-10.2-14.8-26.1-14.8-26.1s-7.9,1.2-21,11.3c-1.7-1.1-3.6-2.2-5.7-3.2
		C77.3,48.3,75,38.3,75,38.3s-2.3,10-20.6,18.7c-2.1,1-3.9,2-5.7,3.2c-13.1-10.1-21-11.3-21-11.3S16.1,64.7,12.9,74.9
		S0,108.7,0,108.7l9-4.1C21.2,174.4,75,250,75,250s53.8-75.6,66-145.4l9,4.1C150,108.7,140.3,85.1,137.1,74.9z M75,98.5
		c0,0,5.5-21.3,26.7-30.9c2.9,3.4,5.6,7.7,7.9,13.2C121.4,108.9,97.4,165,75,185.6C52.6,165,28.6,108.9,40.4,80.8
		c2.3-5.5,5-9.8,7.9-13.2C69.5,77.3,75,98.5,75,98.5z M75,55c0,0,11.5-1.1,22.4,8.3c-6.5,5.5-14,13-22.4,23.3
		c-8.3-10.3-15.9-17.8-22.4-23.3C63.5,53.9,75,55,75,55z M75,223.9C36.1,169.3,18.3,119.3,18.3,98.5c0-20.7,11.4-35.4,11.4-35.4
		c4.6,0.3,8.7,1.1,12.4,2.2c-8.6,8.3-11.4,17.4-11.4,17.4s-8.7,18.2,3.4,42.6S75,207.6,75,207.6s28.8-57.9,40.9-82.3
		s3.4-42.6,3.4-42.6s-2.8-9.1-11.4-17.4c3.7-1.1,7.8-1.9,12.4-2.2c0,0,11.4,14.7,11.4,35.4C131.7,119.3,113.9,169.3,75,223.9z"/>
	<path class="st0" d="M75,21c21.9,13.7,32.8,27.7,32.8,27.7l8.4-7C96.6,18.2,75,0,75,0S53.4,18.2,33.8,41.8l8.4,7
		C42.2,48.8,53.1,34.8,75,21z"/>
</g>
</svg>
